<svg xmlns="http://www.w3.org/2000/svg" width="520" height="260" viewBox="0 0 520 260"><style>* { font-family: "Ubuntu", "Helvetica", "Arial", sans-serif; }.fill-bg { fill: #0d1117; }.fill-fg { fill: #c9d1d9; }.stroke-bg { stroke: #0d1117; }</style><rect x="0" y="0" width="520" height="260" class="fill-bg"></rect><g transform="translate(40, 520)"><g transform="translate(273, 0)"><rect x="0" y="37.9167" width="21.6667" height="21.6667" fill="#A97BFF" class="stroke-bg" stroke-width="1px"></rect><text dominant-baseline="middle" x="26" y="48.7500" class="fill-fg" font-size="21.6667px">Kotlin</text><rect x="0" y="70.4167" width="21.6667" height="21.6667" fill="#3178c6" class="stroke-bg" stroke-width="1px"></rect><text dominant-baseline="middle" x="26" y="81.2500" class="fill-fg" font-size="21.6667px">TypeScript</text><rect x="0" y="102.9167" width="21.6667" height="21.6667" fill="#3572A5" class="stroke-bg" stroke-width="1px"></rect><text dominant-baseline="middle" x="26" y="113.7500" class="fill-fg" font-size="21.6667px">Python</text><rect x="0" y="135.4167" width="21.6667" height="21.6667" fill="#00B4AB" class="stroke-bg" stroke-width="1px"></rect><text dominant-baseline="middle" x="26" y="146.2500" class="fill-fg" font-size="21.6667px">Dart</text><rect x="0" y="167.9167" width="21.6667" height="21.6667" fill="#f1e05a" class="stroke-bg" stroke-width="1px"></rect><text dominant-baseline="middle" x="26" y="178.7500" class="fill-fg" font-size="21.6667px">JavaScript</text><rect x="0" y="200.4167" width="21.6667" height="21.6667" fill="#444444" class="stroke-bg" stroke-width="1px"></rect><text dominant-baseline="middle" x="26" y="211.2500" class="fill-fg" font-size="21.6667px">Other</text></g><g transform="translate(130, 130)"><path d="M0.000,-117.000A117,117,0,1,1,-99.126,-62.154L-55.070,-34.530A65,65,0,1,0,0.000,-65.000Z" style="fill: #A97BFF;" class="stroke-bg" stroke-width="2px"><title>Kotlin 942551</title></path><path d="M-99.126,-62.154A117,117,0,0,1,-66.814,-96.046L-37.119,-53.359A65,65,0,0,0,-55.070,-34.530Z" style="fill: #3178c6;" class="stroke-bg" stroke-width="2px"><title>TypeScript 72036</title></path><path d="M-66.814,-96.046A117,117,0,0,1,-37.627,-110.785L-20.904,-61.547A65,65,0,0,0,-37.119,-53.359Z" style="fill: #3572A5;" class="stroke-bg" stroke-width="2px"><title>Python 50123</title></path><path d="M-37.627,-110.785A117,117,0,0,1,-5.552,-116.868L-3.084,-64.927A65,65,0,0,0,-20.904,-61.547Z" style="fill: #00B4AB;" class="stroke-bg" stroke-width="2px"><title>Dart 50046</title></path><path d="M-5.552,-116.868A117,117,0,0,1,-2.752,-116.968L-1.529,-64.982A65,65,0,0,0,-3.084,-64.927Z" style="fill: #f1e05a;" class="stroke-bg" stroke-width="2px"><title>JavaScript 4280</title></path><path d="M-2.752,-116.968A117,117,0,0,1,-0.000,-117.000L-0.000,-65.000A65,65,0,0,0,-1.529,-64.982Z" style="fill: #444444;" class="stroke-bg" stroke-width="2px"><title>Other 4206</title></path></g></g></svg>